<svg width="138" height="150" version="1.1" viewBox="0 0 36.512 39.688" xmlns="http://www.w3.org/2000/svg"><g transform="translate(-22.225,-1.5875)"><g fill-rule="evenodd"><path x="22.225" y="1.5875" width="36.512501" height="39.6875" d="m24.225 1.5875h32.513a2 2 45 0 1 2 2v35.688a2 2 135 0 1-2 2h-32.513a2 2 45 0 1-2-2v-35.688a2 2 135 0 1 2-2z" fill="#fff"/><path d="m40.217 6.8792h4.2333" fill="#2b2b2b" stroke="#4dcfc7" stroke-linecap="round" stroke-linejoin="round" stroke-width=".26458"/><path d="m38.365 12.7v-3.175" fill="#2b2b2b" stroke="#c1a339" stroke-linecap="round" stroke-linejoin="round" stroke-width=".26458"/></g><g fill="none" stroke-linecap="round" stroke-linejoin="round" stroke-width=".26458"><path d="m26.988 12.7v-5.8208h9.525" stroke="#6992d7"/><path d="m33.867 36.512h-2.1812a0.2 0.2 45 0 1-0.2-0.2v-3.7688" stroke="#c14939" stroke-dashoffset=".45354"/><path d="m38.365 32.544v3.7688a0.2 0.2 135 0 1-0.2 0.2h-1.9167" stroke="#4d7dcf" stroke-dashoffset=".45354"/><path d="m34.925 25.4h-3.2396a0.2 0.2 135 0 0-0.2 0.2v4.0333" stroke="#c14939"/><path d="m35.19 25.4h2.975a0.2 0.2 45 0 1 0.2 0.2v6.9438" stroke="#4d7dcf"/><path d="m33.867 22.49h-6.8792v-1.3229" stroke="#c14939"/><path d="m30.692 15.61h-3.7042v1.3229" stroke="#4d7dcf"/><path d="m35.983 22.49h2.3812v-3.175" stroke="#c1a339"/><path d="m34.396 15.61h3.9688v3.7042" stroke="#c1a339"/><path d="m30.956 15.61h3.175" stroke="#909090"/><path d="m30.427 12.7h-3.4396v2.9104" stroke="#4d7dcf"/><path d="m34.396 12.7h3.9688v2.9104" stroke="#c1a339"/><path d="m36.108 9.3927h4.5087" stroke="#2b2b2b"/></g><g fill="#2b2b2b" fill-rule="evenodd"><rect transform="rotate(90)" x="8.4667" y="-39.423" width=".52917" height="2.1167"/><rect transform="rotate(90)" x="8.4667" y="-40.746" width=".52917" height="1.0583"/><rect transform="rotate(90)" x="8.4667" y="-37.042" width=".52917" height="1.0583"/><g stroke="#2b2b2b" stroke-linecap="round" stroke-linejoin="round" stroke-width=".26458"><path d="m36.512 8.7312 1e-6 -3.4396"/><path d="m40.217 8.7312 1e-6 -3.4396"/><path d="m40.217 5.2917h-3.7042"/></g></g><path d="m36.512 6.8792h1.8521l-1e-6 1.0583" fill="none" stroke="#2b2b2b" stroke-linecap="round" stroke-linejoin="round" stroke-width=".26458"/></g><g transform="translate(-22.225,-1.5875)"><g fill="none" stroke-linecap="round" stroke-linejoin="round" stroke-width=".26458"><path d="m46.831 16.669h7.4083l1e-6 -2.9104" stroke="#c13984"/><path d="m49.213 16.669v-2.9104" stroke="#c13984"/><path d="m44.45 13.758v2.9104h1.8521" stroke="#909090"/></g><g stroke-linecap="round" stroke-linejoin="round"><path d="m44.45 11.906v-5.0271" fill="#2b2b2b" fill-rule="evenodd" stroke="#4dcfc7" stroke-width=".26458"/><path d="m49.213 11.906v-5.0271h-4.7625" fill="none" stroke="#4dcfc7" stroke-width=".26458"/><rect x="32.808" y="21.497" width="4.2333" height="5.424" rx=".52917" ry=".52917" fill="none" stroke="#2b2b2b" stroke-width=".13229"/></g><g fill="#2b2b2b" fill-rule="evenodd"><path d="m32.279 28.51v4.8917a0.2 0.2 135 0 1-0.2 0.2h-1.1875a0.2 0.2 45 0 1-0.2-0.2l-1e-6 -4.8917a0.2 0.2 135 0 1 0.2-0.2h1.1875a0.2 0.2 45 0 1 0.2 0.2z"/><path d="m34.725 13.494h-4.3625a0.2 0.2 45 0 1-0.2-0.2v-1.1875a0.2 0.2 135 0 1 0.2-0.2l4.3625-1e-6a0.2 0.2 45 0 1 0.2 0.2v1.1875a0.2 0.2 135 0 1-0.2 0.2z"/><path d="m43.656 14.088v-4.3625a0.2 0.2 135 0 1 0.2-0.2h1.1875a0.2 0.2 45 0 1 0.2 0.2l1e-6 4.3625a0.2 0.2 135 0 1-0.2 0.2h-1.1875a0.2 0.2 45 0 1-0.2-0.2z"/><path d="m48.419 14.088v-4.3625a0.2 0.2 135 0 1 0.2-0.2h1.1875a0.2 0.2 45 0 1 0.2 0.2l1e-6 4.3625a0.2 0.2 135 0 1-0.2 0.2h-1.1875a0.2 0.2 45 0 1-0.2-0.2z"/><path d="m33.008 37.835h3.8333a0.2 0.2 135 0 0 0.2-0.2l1e-6 -2.2458a0.2 0.2 45 0 0-0.2-0.2h-3.8333a0.2 0.2 135 0 0-0.2 0.2l-1e-6 2.2458a0.2 0.2 45 0 0 0.2 0.2z"/></g><path d="m34.264 36.513h-1.5875" fill="none" stroke="#c14939" stroke-dashoffset=".45354" stroke-linecap="round" stroke-linejoin="round" stroke-width=".26458"/><path d="m35.586 36.513h1.5875" fill="none" stroke="#4d7dcf" stroke-dashoffset=".45354" stroke-linecap="round" stroke-linejoin="round" stroke-width=".26458"/><g fill-rule="evenodd"><circle transform="scale(-1)" cx="-33.999" cy="-36.513" r=".54119" fill="#c14939"/><circle transform="scale(-1)" cx="-35.851" cy="-36.513" r=".54119" fill="#4d7dcf"/><path d="m28.31 20.967v-3.8333a0.2 0.2 45 0 0-0.2-0.2l-2.2458-1e-6a0.2 0.2 135 0 0-0.2 0.2v3.8333a0.2 0.2 45 0 0 0.2 0.2l2.2458 1e-6a0.2 0.2 135 0 0 0.2-0.2z" fill="#2b2b2b"/></g><path d="m26.988 19.711v1.5875" fill="none" stroke="#c14939" stroke-dashoffset=".45354" stroke-linecap="round" stroke-linejoin="round" stroke-width=".26458"/><path d="m26.988 18.389v-1.5875" fill="none" stroke="#4d7dcf" stroke-dashoffset=".45354" stroke-linecap="round" stroke-linejoin="round" stroke-width=".26458"/><g fill-rule="evenodd"><circle transform="rotate(90)" cx="19.976" cy="-26.988" r=".54119" fill="#c14939"/><circle transform="rotate(90)" cx="18.124" cy="-26.988" r=".54119" fill="#4d7dcf"/><path d="m55.563 13.823v-3.8333a0.2 0.2 45 0 0-0.2-0.2l-2.2458-8e-7a0.2 0.2 135 0 0-0.2 0.2v3.8333a0.2 0.2 45 0 0 0.2 0.2l2.2458 1e-6a0.2 0.2 135 0 0 0.2-0.2z" fill="#2b2b2b"/></g><path d="m54.24 12.568v1.5875" fill="none" stroke="#c13984" stroke-dashoffset=".45354" stroke-linecap="round" stroke-linejoin="round" stroke-width=".26458"/><path d="m54.24 11.245v-1.5875" fill="none" stroke="#4dcfc7" stroke-dashoffset=".45354" stroke-linecap="round" stroke-linejoin="round" stroke-width=".26458"/><g fill-rule="evenodd"><circle transform="rotate(90)" cx="12.832" cy="-54.24" r=".54119" fill="#c13984"/><circle transform="rotate(90)" cx="10.98" cy="-54.24" r=".54119" fill="#4dcfc7"/><path d="m52.917 19.515v2.2458a0.2 0.2 45 0 0 0.2 0.2l2.2458 1e-6a0.2 0.2 135 0 0 0.2-0.2v-2.2458a0.2 0.2 45 0 0-0.2-0.2l-2.2458-1e-6a0.2 0.2 135 0 0-0.2 0.2z" fill="#2b2b2b"/></g><path d="m54.24 20.77v-1.5875" fill="none" stroke="#c13984" stroke-dashoffset=".45354" stroke-linecap="round" stroke-linejoin="round" stroke-width=".26458"/><circle transform="rotate(-90)" cx="-20.638" cy="54.24" r=".54119" fill="#c13984" fill-rule="evenodd"/><g transform="matrix(0 -1 -1 0 66.737 49.213)"><g transform="translate(6.35 17.462)" fill="#2b2b2b" fill-rule="evenodd"><path d="m16.869 15.081h1.1875a0.12361 0.12361 121.72 0 0 0.11056-0.17888l-0.61486-1.2297a0.1 0.1 0 0 0-0.17889 0l-0.61486 1.2297a0.12361 0.12361 58.283 0 0 0.11056 0.17888z"/><path d="m16.801 13.626h1.3229" stroke="#2b2b2b" stroke-dashoffset=".45354" stroke-linecap="round" stroke-linejoin="round" stroke-width=".26458"/></g><g fill="none" stroke="#2b2b2b" stroke-dashoffset=".45354" stroke-linecap="round" stroke-linejoin="round" stroke-width=".10583"><path d="m24.606 31.75 0.52917-0.52917"/><path d="m24.871 31.221h0.26458v0.26458"/><path d="m24.606 32.279 0.52917-0.52917"/><path d="m24.871 31.75h0.26458v0.26458"/></g></g><g transform="matrix(0 1 1 0 15.081 -7.1702)"><g transform="translate(6.35 17.462)" fill="#2b2b2b" fill-rule="evenodd"><path d="m16.869 15.081h1.1875a0.12361 0.12361 121.72 0 0 0.11056-0.17888l-0.61486-1.2297a0.1 0.1 0 0 0-0.17889 0l-0.61486 1.2297a0.12361 0.12361 58.283 0 0 0.11056 0.17888z"/><path d="m16.801 13.626h1.3229" stroke="#2b2b2b" stroke-dashoffset=".45354" stroke-linecap="round" stroke-linejoin="round" stroke-width=".26458"/></g><g fill="none" stroke="#2b2b2b" stroke-dashoffset=".45354" stroke-linecap="round" stroke-linejoin="round" stroke-width=".10583"><path d="m24.606 31.75 0.52917-0.52917"/><path d="m24.871 31.221h0.26458v0.26458"/><path d="m24.606 32.279 0.52917-0.52917"/><path d="m24.871 31.75h0.26458v0.26458"/></g></g><g fill="#2b2b2b"><g transform="matrix(0 -1 -1 0 45.12 33.074)"><path d="m16.87 14.958h1.1875a0.12361 0.12361 121.72 0 0 0.11056-0.17888l-0.61486-1.2297a0.1 0.1 0 0 0-0.17889 0l-0.61486 1.2297a0.12361 0.12361 58.283 0 0 0.11056 0.17888z" fill="#2b2b2b" fill-rule="evenodd"/><path d="m16.826 13.758v-0.26458h1.2529v-0.26458" fill="none" stroke="#2b2b2b" stroke-dashoffset=".45354" stroke-linecap="round" stroke-linejoin="round" stroke-width=".21167"/></g><g transform="matrix(0 -1 -1 0 52.405 22.744)"><path d="m16.87 14.958h1.1875a0.12361 0.12361 121.72 0 0 0.11056-0.17888l-0.61486-1.2297a0.1 0.1 0 0 0-0.17889 0l-0.61486 1.2297a0.12361 0.12361 58.283 0 0 0.11056 0.17888z" fill="#2b2b2b" fill-rule="evenodd"/><path d="m16.826 13.758v-0.26458h1.2529v-0.26458" fill="none" stroke="#2b2b2b" stroke-dashoffset=".45354" stroke-linecap="round" stroke-linejoin="round" stroke-width=".21167"/></g><g transform="matrix(0 1 1 0 19.967 -1.8417)"><path d="m16.87 14.958h1.1875a0.12361 0.12361 121.72 0 0 0.11056-0.17888l-0.61486-1.2297a0.1 0.1 0 0 0-0.17889 0l-0.61486 1.2297a0.12361 0.12361 58.283 0 0 0.11056 0.17888z" fill="#2b2b2b" fill-rule="evenodd"/><path d="m16.826 13.758v-0.26458h1.2529v-0.26458" fill="none" stroke="#2b2b2b" stroke-dashoffset=".45354" stroke-linecap="round" stroke-linejoin="round" stroke-width=".21167"/></g></g><g transform="translate(-2.7044e-8 .26458)" fill="none" stroke="#2b2b2b" stroke-linecap="round" stroke-linejoin="round"><path d="m33.867 23.019h2.1167" stroke-width=".26458"/><g stroke-width=".13229"><path d="m35.19 23.019 0.79375-0.79375"/><path d="m34.66 23.019-0.79375-0.79375"/><path d="m35.719 22.225h0.26458v0.26458"/></g></g><path d="m38.476 8.4073 0.30729-0.46093a0.10704 0.10704 61.845 0 0-0.08906-0.16641h-0.65833a0.10704 0.10704 118.15 0 0-0.08906 0.16641l0.30729 0.46093a0.13333 0.13333 180 0 0 0.22188-1e-7z" fill="#2b2b2b" fill-rule="evenodd"/><path d="m54.24 10.054v-3.175h-5.0271" fill="none" stroke="#4dcfc7" stroke-linecap="round" stroke-linejoin="round" stroke-width=".26458"/><path d="m54.24 16.669v2.9104" fill="none" stroke="#c13984" stroke-linecap="round" stroke-linejoin="round" stroke-width=".26458"/></g></svg>
