<svg width="84" height="144" version="1.1" viewBox="0 0 22.225 38.1" xmlns="http://www.w3.org/2000/svg"><g transform="translate(-19.05 -1.5875)"><path x="19.050001" y="1.5875" width="22.224998" height="38.100002" d="m21.05 1.5875h18.225a2 2 45 0 1 2 2v34.1a2 2 135 0 1-2 2h-18.225a2 2 45 0 1-2-2v-34.1a2 2 135 0 1 2-2z" fill="#fff" fill-rule="evenodd"/><g fill="none" stroke-dashoffset=".45354" stroke-linecap="round" stroke-linejoin="round" stroke-width=".26458"><path d="m27.517 26.194h2.6458v-5.5562" stroke="#c14939"/><g stroke="#4d7dcf"><path d="m23.812 20.638v5.5562h2.9104"/><path d="m23.812 15.875v4.7625"/><path d="m25.4 14.288-1.5875 1.5875 1.8521 1.8521"/></g><path d="m30.162 15.875v4.7625" stroke="#c14939"/><path d="m28.575 14.288 1.5875 1.5875-1.5875 1.5875" stroke="#c14939"/><g stroke="#dcce46"><path d="m26.988 19.05h4.7625"/><path d="m25.4 14.288 1.5875-1.5875 1.5875 1.5875"/><path d="m25.4 17.462 1.5875 1.5875 1.5875-1.5875"/><path d="m31.75 12.7h3.7688a0.2 0.2 45 0 1 0.2 0.2v1.9167"/><path d="m35.719 16.669v2.1812a0.2 0.2 135 0 1-0.2 0.2h-3.7688"/></g><path d="m30.162 15.875v-4.7625" stroke="#c14939"/><path d="m23.812 15.875v-4.7625" stroke="#4d7dcf"/><path d="m23.812 11.112v-3.7688a0.2 0.2 135 0 1 0.2-0.2h1.9167" stroke="#4d7dcf"/><path d="m27.781 7.1438h2.1812a0.2 0.2 45 0 1 0.2 0.2v3.7688" stroke="#c14939"/></g><g fill-rule="evenodd" stroke-dashoffset=".45354" stroke-linecap="round" stroke-linejoin="round" stroke-width=".10583"><circle cx="23.812" cy="15.875" r=".26458" fill="#4d7dcf" stroke="#4d7dcf"/><circle cx="30.162" cy="15.875" r=".26458" fill="#c14939" stroke="#c14939"/><circle cx="26.987" cy="12.7" r=".26458" fill="#dcce46" stroke="#dcce46"/><circle cx="23.812" cy="26.194" r=".26458" fill="#4d7dcf" stroke="#4d7dcf"/><circle cx="30.162" cy="26.194" r=".26458" fill="#c14939" stroke="#c14939"/></g><g stroke-dashoffset=".45354" stroke-linecap="round" stroke-linejoin="round"><path d="m30.162 26.194v9.325a0.2 0.2 135 0 1-0.2 0.2h-5.95a0.2 0.2 45 0 1-0.2-0.2v-3.2396" fill="none" stroke="#c14939" stroke-width=".26458"/><path d="m23.812 26.194v4.7625" fill="none" stroke="#4d7dcf" stroke-width=".26458"/><circle cx="26.987" cy="19.05" r=".26458" fill="#dcce46" fill-rule="evenodd" stroke="#dcce46" stroke-width=".10583"/><path d="m26.988 12.7h4.7625" fill="none" stroke="#dcce46" stroke-width=".26458"/></g></g><g transform="translate(-19.05 -1.5875)"><g fill-rule="evenodd"><path d="m24.394 14.454 0.83969 0.83969c0.06498 0.06497 0.17561 0.03885 0.20467-0.04832l0.43477-1.3043c0.02606-0.07818-0.04832-0.15255-0.12649-0.12649l-1.3043 0.43477c-0.08717 0.02905-0.11329 0.13969-0.04832 0.20467zm1.173 4.0147 0.83969-0.83969c0.06497-0.06498 0.03885-0.17561-0.04832-0.20467l-1.3043-0.43477c-0.07818-0.02606-0.15255 0.04831-0.12649 0.12649l0.43477 1.3043c0.02905 0.08717 0.13969 0.11329 0.20467 0.04832zm4.0147-1.173-0.83969-0.83969c-0.06498-0.06497-0.17561-0.03885-0.20467 0.04832l-0.43477 1.3043c-0.02606 0.07818 0.04831 0.15255 0.12649 0.12649l1.3043-0.43477c0.08717-0.02905 0.11329-0.13969 0.04832-0.20467zm-1.173-4.0147-0.83969 0.83969c-0.06497 0.06497-0.03885 0.17561 0.04832 0.20467l1.3043 0.43477c0.07818 0.02606 0.15255-0.04832 0.12649-0.12649l-0.43477-1.3043c-0.02905-0.08717-0.13969-0.11329-0.20467-0.04832z" fill="#2b2b2b"/><path d="m25.375 13.377 0.93544 0.93544m-1.8205 3.175 0.93544-0.93544m3.175 1.8205-0.93544-0.93544m1.8205-3.175-0.93544 0.93544" fill="#ececec" stroke="#2b2b2b" stroke-dashoffset=".45354" stroke-linecap="round" stroke-linejoin="round" stroke-width=".26458"/></g><path d="m30.956 29.304v4.8917a0.2 0.2 135 0 1-0.2 0.2h-1.1875a0.2 0.2 45 0 1-0.2-0.2l-1e-6 -4.8917a0.2 0.2 135 0 1 0.2-0.2h1.1875a0.2 0.2 45 0 1 0.2 0.2z" fill="#2b2b2b" fill-rule="evenodd"/><g transform="translate(6.35 17.462)" fill="#2b2b2b" fill-rule="evenodd"><path d="m16.869 15.081h1.1875a0.12361 0.12361 121.72 0 0 0.11056-0.17888l-0.61486-1.2297a0.1 0.1 0 0 0-0.17889 0l-0.61486 1.2297a0.12361 0.12361 58.283 0 0 0.11056 0.17888z"/><path d="m16.801 13.626h1.3229" stroke="#2b2b2b" stroke-dashoffset=".45354" stroke-linecap="round" stroke-linejoin="round" stroke-width=".26458"/></g><g transform="translate(11.642 14.288)" stroke="#2b2b2b" stroke-dashoffset=".45354" stroke-linecap="round" stroke-linejoin="round" stroke-width=".26458"><path d="m15.875 10.583v2.6458" fill="#d7dae0" fill-rule="evenodd"/><path d="m14.552 10.583s0.52917 0.52917 0.52917 1.3229-0.52917 1.3229-0.52917 1.3229" fill="none"/></g><path d="m34.396 13.826v3.8333a0.2 0.2 45 0 0 0.2 0.2l2.2458 1e-6a0.2 0.2 135 0 0 0.2-0.2v-3.8333a0.2 0.2 45 0 0-0.2-0.2l-2.2458-1e-6a0.2 0.2 135 0 0-0.2 0.2z" fill="#2b2b2b" fill-rule="evenodd"/><path d="m35.719 15.081v-1.5875" fill="none" stroke="#dcce46" stroke-dashoffset=".45354" stroke-linecap="round" stroke-linejoin="round" stroke-width=".26458"/><path d="m35.719 16.404v1.5875" fill="none" stroke="#dcce46" stroke-dashoffset=".45354" stroke-linecap="round" stroke-linejoin="round" stroke-width=".26458"/><g fill-rule="evenodd"><circle transform="rotate(-90)" cx="-14.817" cy="35.719" r=".54119" fill="#dcce46"/><circle transform="rotate(-90)" cx="-16.669" cy="35.719" r=".54119" fill="#dcce46"/><path d="m28.904 5.8208h-3.8333a0.2 0.2 135 0 0-0.2 0.2l-1e-6 2.2458a0.2 0.2 45 0 0 0.2 0.2h3.8333a0.2 0.2 135 0 0 0.2-0.2l1e-6 -2.2458a0.2 0.2 45 0 0-0.2-0.2z" fill="#2b2b2b"/></g><path d="m27.649 7.1437h1.5875" fill="none" stroke="#c14939" stroke-dashoffset=".45354" stroke-linecap="round" stroke-linejoin="round" stroke-width=".26458"/><path d="m26.326 7.1437h-1.5875" fill="none" stroke="#4d7dcf" stroke-dashoffset=".45354" stroke-linecap="round" stroke-linejoin="round" stroke-width=".26458"/><circle cx="27.914" cy="7.1438" r=".54119" fill="#c14939" fill-rule="evenodd"/><circle cx="26.061" cy="7.1438" r=".54119" fill="#4d7dcf" fill-rule="evenodd"/><g fill="none" stroke="#2b2b2b" stroke-dashoffset=".45354" stroke-linecap="round" stroke-linejoin="round" stroke-width=".10583"><path d="m24.606 31.75 0.52917-0.52917"/><path d="m24.871 31.221h0.26458v0.26458"/><path d="m24.606 32.279 0.52917-0.52917"/><path d="m24.871 31.75h0.26458v0.26458"/></g></g></svg>
