<svg width="126.62" height="22.678" version="1.1" viewBox="0 0 33.5 6.0003" xmlns="http://www.w3.org/2000/svg"><g transform="translate(3.5001 -7.4998)" fill-rule="evenodd" stroke-linecap="round" stroke-linejoin="round"><g stroke-width=".26458"><circle cx="13" cy="10.5" r="2.5" fill="#47b26b"/><path d="m13 13.5h-2l-0.78738-1.8905" fill="#d56a6d"/><path d="m13 13.5h2l0.78738-1.8905" fill="#d56a6d"/></g><path transform="scale(.26458)" d="m49.135 28.346a11.339 11.339 0 0 0-11.34 11.34 11.339 11.339 0 0 0 11.34 11.338 11.339 11.339 0 0 0 11.338-11.338 11.339 11.339 0 0 0-11.338-11.34zm0 7.5605a3.7795 3.7795 0 0 1 3.7793 3.7793 3.7795 3.7795 0 0 1-3.7793 3.7793 3.7795 3.7795 0 0 1-3.7812-3.7793 3.7795 3.7795 0 0 1 3.7812-3.7793z" fill="#89d3a2"/><g stroke-width=".26458"><circle cx="27" cy="10.5" r="2.5" fill="#47b26b"/><path d="m27 7.4999a3 3 0 0 0-3.0003 3.0003 3 3 0 0 0 3.0003 2.9998 3 3 0 0 0 2.9998-2.9998 3 3 0 0 0-2.9998-3.0003zm0 2.0004a1 1 0 0 1 0.99994 0.99994 1 1 0 0 1-0.99994 0.99994 1 1 0 0 1-1.0005-0.99994 1 1 0 0 1 1.0005-0.99994z" fill="#89d3a2"/><circle cx="-.49998" cy="10.5" r="2.5" fill="#47b26b"/></g><g fill="#89d3a2" stroke-width=".26458"><path d="m-0.49998 13.5h-2l-0.78738-1.8905"/><path d="m-0.49998 13.5h2l0.78738-1.8905"/><path d="m-0.49974 7.4999a3 3 0 0 0-3.0003 3.0003 3 3 0 0 0 3.0003 2.9998 3 3 0 0 0 2.9998-2.9998 3 3 0 0 0-2.9998-3.0003zm0 2.0004a1 1 0 0 1 0.99994 0.99994 1 1 0 0 1-0.99994 0.99994 1 1 0 0 1-1.0005-0.99994 1 1 0 0 1 1.0005-0.99994z"/></g></g></svg>
