<svg width="279.69" height="113.39" version="1.1" viewBox="0 0 74 30.001" xmlns="http://www.w3.org/2000/svg"><g transform="translate(16.649 -8.8121)"><g transform="rotate(90 24.269 33.082)"><g fill-rule="evenodd"><path transform="scale(.26458)" d="m0 0v226.76h24.566v52.914h22.678v-52.914h18.898v52.914h22.676v-52.914h24.568v-226.76h-113.39zm11.338 5.6699a5.6693 5.6693 0 0 1 5.6699 5.668 5.6693 5.6693 0 0 1-5.6699 5.6699 5.6693 5.6693 0 0 1-5.668-5.6699 5.6693 5.6693 0 0 1 5.668-5.668zm90.709 0a5.6693 5.6693 0 0 1 5.6699 5.668 5.6693 5.6693 0 0 1-5.6699 5.6699 5.6693 5.6693 0 0 1-5.668-5.6699 5.6693 5.6693 0 0 1 5.668-5.668zm-90.709 90.709a5.6693 5.6693 0 0 1 5.6699 5.668 5.6693 5.6693 0 0 1-5.6699 5.6699 5.6693 5.6693 0 0 1-5.668-5.6699 5.6693 5.6693 0 0 1 5.668-5.668zm90.709 0a5.6693 5.6693 0 0 1 5.6699 5.668 5.6693 5.6693 0 0 1-5.6699 5.6699 5.6693 5.6693 0 0 1-5.668-5.6699 5.6693 5.6693 0 0 1 5.668-5.668zm-90.709 22.676a5.6693 5.6693 0 0 1 5.6699 5.6699 5.6693 5.6693 0 0 1-5.6699 5.668 5.6693 5.6693 0 0 1-5.668-5.668 5.6693 5.6693 0 0 1 5.668-5.6699zm90.709 0a5.6693 5.6693 0 0 1 5.6699 5.6699 5.6693 5.6693 0 0 1-5.6699 5.668 5.6693 5.6693 0 0 1-5.668-5.668 5.6693 5.6693 0 0 1 5.668-5.6699zm-90.709 90.709a5.6693 5.6693 0 0 1 5.6699 5.6699 5.6693 5.6693 0 0 1-5.6699 5.668 5.6693 5.6693 0 0 1-5.668-5.668 5.6693 5.6693 0 0 1 5.668-5.6699zm90.709 0a5.6693 5.6693 0 0 1 5.6699 5.6699 5.6693 5.6693 0 0 1-5.6699 5.668 5.6693 5.6693 0 0 1-5.668-5.668 5.6693 5.6693 0 0 1 5.668-5.6699z" fill="#89d3a2"/><circle cx="15" cy="15" r="11" fill="#549095"/><circle cx="15" cy="15" r="13.5" fill="#5fc682"/><circle cx="15" cy="45" r="13.5" fill="#5fc682"/><path transform="scale(.26458)" d="m73.701 194.65v85.039h7.5586v-85.039z" fill="#3c9058"/><path x="19.500002" y="22.500006" width="1.9999995" height="14" d="m19.5 22.5h2v14h-2z" fill="#3c9058"/><circle cx="15" cy="45" r="11" fill="#47b26b"/></g><a fill="#47b26b"><circle cx="15" cy="15" r="11" fill="#47b26b" fill-rule="evenodd"/></a><path transform="scale(.26458)" d="m39.686 8.5879c-2.6398 0.78832-5.2918 2.2506-7.5586 3.3848v267.71h7.5586v-271.09z" fill="#3c9058" fill-rule="evenodd"/></g></g><style>.A {  }</style><style>.A {  }</style></svg>
