<svg width="302.36" height="113.39" version="1.1" viewBox="0 0 79.999 30.001" xmlns="http://www.w3.org/2000/svg"><g transform="translate(2.6464 25.584)"><g transform="rotate(90 41.468 15.885)" fill-rule="evenodd"><path transform="scale(.26458)" d="m0-75.59v302.36h113.39v-302.36zm19.842 9.4473a10.394 10.394 0 0 1 10.395 10.395 10.394 10.394 0 0 1-10.395 10.395 10.394 10.394 0 0 1-10.393-10.395 10.394 10.394 0 0 1 10.393-10.395zm73.701 0a10.394 10.394 0 0 1 10.395 10.395 10.394 10.394 0 0 1-10.395 10.395 10.394 10.394 0 0 1-10.393-10.395 10.394 10.394 0 0 1 10.393-10.395zm-82.205 71.812a5.6693 5.6693 0 0 1 5.6699 5.668 5.6693 5.6693 0 0 1-5.6699 5.6699 5.6693 5.6693 0 0 1-5.668-5.6699 5.6693 5.6693 0 0 1 5.668-5.668zm90.709 0a5.6693 5.6693 0 0 1 5.6699 5.668 5.6693 5.6693 0 0 1-5.6699 5.6699 5.6693 5.6693 0 0 1-5.668-5.6699 5.6693 5.6693 0 0 1 5.668-5.668zm-90.709 90.709a5.6693 5.6693 0 0 1 5.6699 5.668 5.6693 5.6693 0 0 1-5.6699 5.6699 5.6693 5.6693 0 0 1-5.668-5.6699 5.6693 5.6693 0 0 1 5.668-5.668zm90.709 0a5.6693 5.6693 0 0 1 5.6699 5.668 5.6693 5.6693 0 0 1-5.6699 5.6699 5.6693 5.6693 0 0 1-5.668-5.6699 5.6693 5.6693 0 0 1 5.668-5.668zm-90.709 22.676a5.6693 5.6693 0 0 1 5.6699 5.6699 5.6693 5.6693 0 0 1-5.6699 5.6699 5.6693 5.6693 0 0 1-5.668-5.6699 5.6693 5.6693 0 0 1 5.668-5.6699zm90.709 0a5.6693 5.6693 0 0 1 5.6699 5.6699 5.6693 5.6693 0 0 1-5.6699 5.6699 5.6693 5.6693 0 0 1-5.668-5.6699 5.6693 5.6693 0 0 1 5.668-5.6699zm-90.709 90.709a5.6693 5.6693 0 0 1 5.6699 5.6699 5.6693 5.6693 0 0 1-5.6699 5.668 5.6693 5.6693 0 0 1-5.668-5.668 5.6693 5.6693 0 0 1 5.668-5.6699zm90.709 0a5.6693 5.6693 0 0 1 5.6699 5.6699 5.6693 5.6693 0 0 1-5.6699 5.668 5.6693 5.6693 0 0 1-5.668-5.668 5.6693 5.6693 0 0 1 5.668-5.6699z" fill="#bb6864"/><path transform="scale(.26458)" d="m0-75.59v75.59h17.008l5.6699 11.338-5.6699 11.34h-17.008v68.031h17.008l5.6699 11.338-5.6699 11.34 5.6699 11.338-5.6699 11.338h-17.008v68.031h17.008l5.6699 11.34v11.338h68.031v-11.338l5.6699-11.34h17.008v-68.031h-17.008l-5.6699-11.338 5.6699-11.338-5.6699-11.34 5.6699-11.338h17.008v-68.031h-17.008l-5.6699-11.34 5.6699-11.338h17.008v-75.59zm19.842 9.4473a10.394 10.394 0 0 1 10.395 10.395 10.394 10.394 0 0 1-10.395 10.395 10.394 10.394 0 0 1-10.393-10.395 10.394 10.394 0 0 1 10.393-10.395zm73.701 0a10.394 10.394 0 0 1 10.395 10.395 10.394 10.394 0 0 1-10.395 10.395 10.394 10.394 0 0 1-10.393-10.395 10.394 10.394 0 0 1 10.393-10.395z" fill="#fc7e78"/></g></g><style>.A {  }</style><style>.A {  }</style></svg>
